<svg width="25" height="25" viewBox="0 0 25 25" fill="none" xmlns="http://www.w3.org/2000/svg">
<path d="M12.3077 3L3 3C1.89543 3 1 3.89543 1 5V22C1 23.1046 1.89543 24 3 24H20C21.1046 24 22 23.1046 22 22V12.6923" stroke="#2F3238" stroke-width="1.6" stroke-linecap="round"/>
<path d="M11.1319 7.12534L15.38 5.57901L16.9253 1.33195C16.9608 1.23466 17.0253 1.15062 17.1101 1.09123C17.1949 1.03185 17.2959 1 17.3995 1C17.503 1 17.6041 1.03185 17.6889 1.09123C17.7737 1.15062 17.8382 1.23466 17.8736 1.33195L19.42 5.58003L23.668 7.12534C23.7653 7.16077 23.8494 7.22527 23.9088 7.31009C23.9681 7.39491 24 7.49595 24 7.59949C24 7.70303 23.9681 7.80407 23.9088 7.88889C23.8494 7.97371 23.7653 8.03822 23.668 8.07364L19.4189 9.61997L17.8736 13.8681C17.8382 13.9653 17.7737 14.0494 17.6889 14.1088C17.6041 14.1681 17.503 14.2 17.3995 14.2C17.2959 14.2 17.1949 14.1681 17.1101 14.1088C17.0253 14.0494 16.9608 13.9653 16.9253 13.8681L15.379 9.61895L11.1319 8.07364C11.0346 8.03822 10.9506 7.97371 10.8912 7.88889C10.8318 7.80407 10.8 7.70303 10.8 7.59949C10.8 7.49595 10.8318 7.39491 10.8912 7.31009C10.9506 7.22527 11.0346 7.16077 11.1319 7.12534Z" stroke="#2F3238" stroke-width="1.6" stroke-linecap="round" stroke-linejoin="round"/>
</svg>
