<svg width="10" height="30" viewBox="0 0 10 30" fill="none" xmlns="http://www.w3.org/2000/svg">
<path d="M1.5625 1C1.5625 0.723858 1.33864 0.5 1.0625 0.5C0.786358 0.5 0.5625 0.723858 0.5625 1H1.5625ZM9.47965 26.3536C9.67491 26.1583 9.67491 25.8417 9.47965 25.6464L6.29767 22.4645C6.1024 22.2692 5.78582 22.2692 5.59056 22.4645C5.3953 22.6597 5.3953 22.9763 5.59056 23.1716L8.41899 26L5.59056 28.8284C5.3953 29.0237 5.3953 29.3403 5.59056 29.5355C5.78582 29.7308 6.1024 29.7308 6.29767 29.5355L9.47965 26.3536ZM0.5625 1V22H1.5625V1H0.5625ZM5.0625 26.5H9.12609V25.5H5.0625V26.5ZM0.5625 22C0.5625 24.4853 2.57722 26.5 5.0625 26.5V25.5C3.1295 25.5 1.5625 23.933 1.5625 22H0.5625Z" fill="#ABABAB" fill-opacity="0.666667"/>
</svg>
