<svg width="16" height="16" viewBox="0 0 16 16" fill="none" xmlns="http://www.w3.org/2000/svg">
<rect width="16" height="16" rx="4" fill="#D5D7DB"/>
<path d="M8.18584 2.99994C9.13801 2.99994 10.0688 3.29318 10.8605 3.84259C11.6522 4.392 12.2692 5.17289 12.6336 6.08652C12.998 7.00015 13.0933 8.00548 12.9076 8.97539C12.7218 9.94529 12.2633 10.8362 11.59 11.5355C10.9167 12.2347 10.0589 12.7109 9.12505 12.9039C8.19118 13.0968 7.22319 12.9978 6.3435 12.6193C5.46381 12.2409 4.71193 11.6 4.18293 10.7778C3.65394 9.95554 3.37159 8.98884 3.37159 7.99994C3.37006 6.56761 3.90067 5.18989 4.85289 4.15378" stroke="#868F9E" stroke-linecap="round" stroke-linejoin="round"/>
<path d="M3.00024 4.52177L5.07408 3.96088L5.59253 6.20447" stroke="#868F9E" stroke-linecap="round" stroke-linejoin="round"/>
</svg>
